<svg width="1280" height="422" viewBox="0 0 1280 422" fill="none" xmlns="http://www.w3.org/2000/svg">
<path d="M43.3814 17.7263L0 0V422H1280V139.523L1262.55 124.656L1232.13 109.789L1218.67 89.7751H1181.77L1149.36 109.789L1111.96 89.7751L1097 77.1951L1066.58 64.6152L1025.2 42.3144L1009.74 17.7263H974.834L946.911 42.3144H916.494L896.549 64.6152L842.197 89.7751H809.786V77.1951L768.399 42.3144L752.941 64.6152L727.012 109.789L698.59 124.656L650.721 162.396L615.816 139.523L578.917 162.396H518.083H489.661L450.767 139.523L376.471 109.789L276.245 64.6152L243.833 42.3144H202.446H106.708L43.3814 17.7263Z" fill="white" fill-opacity="0.05"/>
<path d="M31.9376 201.441H0V422H1280V111L1227.1 141.925L1192.17 176.934H1176.2H1123.31L1096.86 201.441H1056.44L1023 216.028H977.092L933.177 226.531L873.294 253.371L845.349 298.3L816.904 310.553H783.47H766.004H715.103L660.211 298.3H639.251L609.31 281.962L584.858 265.625L566.893 253.371H545.934L491.54 281.962H470.082H431.657L399.719 298.3H353.809L323.867 281.962H278.456H248.515H209.591L183.142 253.371H153.201L114.277 226.531H89.8246L66.8694 216.028C58.7186 211.166 40.3212 201.441 31.9376 201.441Z" fill="white" fill-opacity="0.05"/>
</svg>
