<svg viewBox="0 0 242 44" fill="none" xmlns="http://www.w3.org/2000/svg">
<path d="M16.6553 3.66898H20.1399C20.4608 3.66898 20.7042 3.37441 20.6053 3.06952C20.4506 2.59254 20.1782 2.02107 19.7222 1.82589C19.2631 1.62937 18.9905 1.17212 18.7771 0.814207C18.6152 0.542707 18.4874 0.328369 18.3382 0.328369C18.2088 0.328369 18.1601 0.441122 18.0834 0.618441C17.9551 0.915316 17.7485 1.39318 16.9542 1.82589C16.4557 2.09743 16.263 2.70781 16.1899 3.16367C16.1455 3.44064 16.3745 3.66898 16.6553 3.66898Z" fill="#0B4B5E"/>
<path d="M0 24.3139V22.4953C0 22.2148 0.227972 21.988 0.507735 21.9635C0.948391 21.9248 1.47502 21.8328 1.73002 21.6418C2.09909 21.3653 2.19135 20.7586 2.19135 20.4899C2.26824 18.57 2.42203 14.5459 2.42203 13.8086C2.42203 13.7248 2.41916 13.6286 2.41595 13.5208C2.38389 12.4432 2.31732 10.206 4.72872 7.58817C6.85087 5.28429 12.3024 4.47794 14.7628 4.36274H20.7602C25.0276 4.36274 28.7183 5.1691 31.371 6.78181C33.4932 8.07198 34.2544 10.3912 34.3697 11.3896C34.4081 14.3078 34.5081 20.3055 34.6004 20.9506C34.6881 21.5638 35.3384 21.8786 35.6997 21.9742C35.7356 21.9837 35.7724 21.9874 35.8095 21.9874H36.5139C36.7947 21.9874 37.0224 22.2148 37.0224 22.4953V24.2441C37.0224 24.5246 36.795 24.752 36.5142 24.752H35.2924C33.793 24.752 32.409 24.5216 31.371 23.4849C30.6459 22.7607 30.6391 21.1333 30.6316 19.3175C30.6284 18.5339 30.625 17.7152 30.5637 16.9188C30.3533 14.1877 29.8361 13.449 28.9769 12.2219C28.8939 12.1034 28.8077 11.9802 28.7183 11.8503C27.7034 10.3759 25.9887 10.0072 25.2583 10.0072H12.5715C11.8026 10.0072 9.87264 10.2837 8.30409 11.3896C6.56203 12.6177 6.45883 16.3921 6.37658 19.4001C6.36625 19.7776 6.35626 20.143 6.3434 20.4899C6.24988 23.0119 5.70132 23.3374 5.12821 23.6774C4.99456 23.7567 4.85958 23.8367 4.72872 23.9457C4.24257 24.3503 2.00137 24.6661 0.551197 24.815C0.254787 24.8455 0 24.6115 0 24.3139Z" fill="#0B4B5E"/>
<path fill-rule="evenodd" clip-rule="evenodd" d="M18.4535 10.8396C20.8371 10.7244 25.858 10.9779 26.873 12.9131C27.7768 14.6366 27.9197 16.594 28.0522 18.4103L28.0522 18.4106C28.1057 19.1436 28.1575 19.8536 28.257 20.5159C28.603 22.8198 30.333 27.3124 31.9477 29.1555C32.3282 29.5898 32.7472 29.9858 33.1639 30.3796C34.5149 31.6565 35.8414 32.9102 35.7538 35.3746C32.4011 34.0667 26.0378 32.3338 18.2807 32.3338C10.8059 32.3338 4.6736 34.0404 1.26878 35.4079C1.26872 35.3972 1.26869 35.3866 1.26869 35.3759C1.26869 33.0387 1.88969 32.3931 2.89471 31.3482C3.32618 30.8996 3.82846 30.3774 4.38272 29.6162C6.22808 27.082 8.3041 23.7414 8.53477 20.5159C8.55733 20.2004 8.57879 19.8849 8.60012 19.5713C8.79683 16.6793 8.98231 13.9523 9.91878 12.9131C10.9568 11.7612 14.1862 10.8396 18.4535 10.8396ZM19.6069 17.3586H17.5309V19.2018H15.6855V21.0449H17.5309V24.731H19.6069V21.0449H21.4522V19.2018H19.6069V17.3586Z" fill="#0B4B5E"/>
<path fill-rule="evenodd" clip-rule="evenodd" d="M1.3787 36.4601C1.98276 39.3344 4.98206 40.9373 8.07343 42.1723C11.5335 43.5547 16.9542 43.6699 18.9149 43.6699C19.0331 43.6699 19.1555 43.6703 19.2822 43.6707C21.2574 43.6775 24.2817 43.6878 28.8336 42.1723C33.1298 40.742 35.1579 39.0399 35.6423 36.4231C32.4992 35.1575 26.1275 33.3496 18.2807 33.3496C10.7232 33.3496 4.58815 35.1304 1.3787 36.4601ZM18.2807 34.9151C20.1173 34.9151 21.8732 35.0141 23.5261 35.1819C23.4458 37.9747 21.1538 40.214 18.3382 40.214C15.5243 40.214 13.2334 37.9774 13.1505 35.187C14.7668 35.0157 16.4836 34.9151 18.2807 34.9151Z" fill="#0B4B5E"/>
<path d="M60.4834 16.3346C59.8082 16.0378 58.7955 15.8894 57.4452 15.8894C56.0949 15.8894 55.0035 16.483 54.1708 17.67C53.3381 18.857 52.9218 20.9343 52.9218 23.9019C52.9218 26.8694 53.3156 28.9809 54.1033 30.2364C54.9134 31.4691 56.1062 32.0855 57.6815 32.0855C60.0895 32.0855 62.25 31.7202 64.1629 30.9897L65.3781 34.0372C62.9926 35.4753 60.1908 36.1944 56.9726 36.1944C53.7545 36.1944 51.4252 35.2699 49.9849 33.4209C48.5671 31.5718 47.8582 28.5472 47.8582 24.347C47.8582 20.1468 48.7359 17.0422 50.4913 15.0334C52.2691 13.0246 54.7559 12.0202 57.9516 12.0202C60.5171 12.0202 62.9589 12.7393 65.2769 14.1774C65.2769 14.3144 65.2769 14.5769 65.2769 14.9649C65.2769 15.353 65.1981 16.015 65.0406 16.9509C64.883 17.8868 64.658 18.6516 64.3654 19.2451H61.1585C60.8434 18.6287 60.6184 17.6586 60.4834 16.3346Z" fill="#0B4B5E"/>
<path d="M67.6504 21.3338C67.6504 20.9914 67.6617 20.6261 67.6842 20.2381C69.7771 19.0967 72.0276 18.526 74.4356 18.526C76.8436 18.526 78.5652 18.994 79.6004 19.9299C80.6581 20.843 81.187 22.3724 81.187 24.5182V31.8115C81.9747 31.9713 82.5935 32.1654 83.0436 32.3936V35.3726C81.8959 35.9205 80.2531 36.1944 78.1151 36.1944C77.8901 35.6009 77.6988 34.8818 77.5412 34.0372C76.5735 35.4753 74.8182 36.1944 72.2751 36.1944C70.7673 36.1944 69.4733 35.7493 68.3931 34.859C67.3353 33.9687 66.8065 32.7589 66.8065 31.2294C66.8065 29.7 67.3016 28.5016 68.2918 27.6341C69.3045 26.7439 70.8011 26.2987 72.7815 26.2987H76.461V24.6552C76.461 22.8746 75.5271 21.9844 73.6592 21.9844C72.9615 21.9844 72.3877 22.0528 71.9376 22.1898C71.8926 23.1485 71.7575 23.8904 71.5325 24.4155H68.2243C67.8417 23.6165 67.6504 22.5893 67.6504 21.3338ZM73.7267 32.7018C74.8744 32.7018 75.7859 32.3594 76.461 31.6746V28.8668H74.098C72.4777 28.8668 71.6675 29.4946 71.6675 30.7501C71.6675 31.3207 71.8363 31.7887 72.1739 32.1539C72.5339 32.5192 73.0515 32.7018 73.7267 32.7018Z" fill="#0B4B5E"/>
<path d="M84.587 18.7999C85.8247 18.526 86.9387 18.389 87.9289 18.389C88.9191 18.389 89.7406 18.4119 90.3932 18.4575V20.1696C90.9333 19.713 91.6084 19.325 92.4186 19.0054C93.2288 18.6858 93.9602 18.526 94.6128 18.526C97.1784 18.526 98.8887 19.1766 99.7439 20.4777C100.307 19.9299 101.049 19.4733 101.972 19.1081C102.895 18.72 103.75 18.526 104.537 18.526C107.013 18.526 108.678 19.0967 109.533 20.2381C110.389 21.3566 110.816 23.4681 110.816 26.5727V32.1197C111.694 32.4621 112.313 32.8502 112.673 33.2839L112.335 35.9205H104.571L104.234 33.2839C104.549 32.8502 105.168 32.4621 106.09 32.1197V25.34C106.09 24.0845 105.921 23.2513 105.584 22.8404C105.246 22.4295 104.571 22.224 103.558 22.224C102.568 22.224 101.623 22.6007 100.723 23.354C100.835 24.1301 100.892 25.203 100.892 26.5727V32.1197C101.769 32.4621 102.388 32.8502 102.748 33.2839L102.411 35.9205H94.6466L94.309 33.2839C94.6241 32.8502 95.243 32.4621 96.1656 32.1197V25.34C96.1656 24.0845 95.9969 23.2513 95.6593 22.8404C95.3217 22.4295 94.6578 22.224 93.6676 22.224C92.6774 22.224 91.7322 22.5893 90.832 23.3198V32.1197C91.7097 32.4621 92.3286 32.8502 92.6887 33.2839L92.3511 35.9205H84.587L84.2494 33.2839C84.5645 32.8502 85.1833 32.4621 86.106 32.1197V22.6007C85.3184 22.3268 84.6995 21.9387 84.2494 21.4365L84.587 18.7999Z" fill="#0B4B5E"/>
<path d="M113.111 18.7999C114.349 18.526 115.463 18.389 116.453 18.389C117.443 18.389 118.264 18.4119 118.917 18.4575V20.1353C120.425 19.0625 122.034 18.526 123.744 18.526C125.995 18.526 127.626 19.1766 128.639 20.4777C129.652 21.7789 130.158 23.9475 130.158 26.9835C130.158 28.6043 129.922 30.031 129.449 31.2637C128.977 32.4964 128.335 33.4551 127.525 34.1399C125.972 35.5096 124.127 36.1944 121.989 36.1944C121.066 36.1944 120.189 36.1031 119.356 35.9205V38.8652C120.684 39.2304 121.539 39.6527 121.922 40.1321L121.584 42.7687H113.111L112.773 40.1321C113.066 39.7212 113.685 39.3331 114.63 38.9679V22.6007C113.842 22.3268 113.223 21.9387 112.773 21.4365L113.111 18.7999ZM121.651 32.7018C122.777 32.7018 123.666 32.1996 124.318 31.1952C124.971 30.168 125.297 28.7641 125.297 26.9835C125.297 25.1802 125.117 23.9475 124.757 23.2855C124.397 22.6235 123.744 22.2925 122.799 22.2925C121.359 22.2925 120.211 22.6349 119.356 23.3198V32.4279C120.054 32.6105 120.819 32.7018 121.651 32.7018Z" fill="#0B4B5E"/>
<path d="M151.393 16.3346C150.717 16.0378 149.705 15.8894 148.354 15.8894C147.004 15.8894 145.913 16.483 145.08 17.67C144.247 18.857 143.831 20.9343 143.831 23.9019C143.831 26.8694 144.225 28.9809 145.012 30.2364C145.823 31.4691 147.015 32.0855 148.591 32.0855C150.999 32.0855 153.159 31.7202 155.072 30.9897L156.287 34.0372C153.902 35.4753 151.1 36.1944 147.882 36.1944C144.664 36.1944 142.334 35.2699 140.894 33.4209C139.476 31.5718 138.767 28.5472 138.767 24.347C138.767 20.1468 139.645 17.0422 141.4 15.0334C143.178 13.0246 145.665 12.0202 148.861 12.0202C151.426 12.0202 153.868 12.7393 156.186 14.1774C156.186 14.3144 156.186 14.5769 156.186 14.9649C156.186 15.353 156.107 16.015 155.95 16.9509C155.792 17.8868 155.567 18.6516 155.275 19.2451H152.068C151.753 18.6287 151.528 17.6586 151.393 16.3346Z" fill="#0B4B5E"/>
<path d="M158.56 21.3338C158.56 20.9914 158.571 20.6261 158.593 20.2381C160.686 19.0967 162.937 18.526 165.345 18.526C167.753 18.526 169.474 18.994 170.51 19.9299C171.567 20.843 172.096 22.3724 172.096 24.5182V31.8115C172.884 31.9713 173.503 32.1654 173.953 32.3936V35.3726C172.805 35.9205 171.162 36.1944 169.024 36.1944C168.799 35.6009 168.608 34.8818 168.45 34.0372C167.483 35.4753 165.727 36.1944 163.184 36.1944C161.677 36.1944 160.382 35.7493 159.302 34.859C158.245 33.9687 157.716 32.7589 157.716 31.2294C157.716 29.7 158.211 28.5016 159.201 27.6341C160.214 26.7439 161.71 26.2987 163.691 26.2987H167.37V24.6552C167.37 22.8746 166.436 21.9844 164.568 21.9844C163.871 21.9844 163.297 22.0528 162.847 22.1898C162.802 23.1485 162.667 23.8904 162.442 24.4155H159.133C158.751 23.6165 158.56 22.5893 158.56 21.3338ZM164.636 32.7018C165.784 32.7018 166.695 32.3594 167.37 31.6746V28.8668H165.007C163.387 28.8668 162.577 29.4946 162.577 30.7501C162.577 31.3207 162.745 31.7887 163.083 32.1539C163.443 32.5192 163.961 32.7018 164.636 32.7018Z" fill="#0B4B5E"/>
<path d="M185.286 23.0116C183.575 23.0116 182.394 23.3426 181.741 24.0046V31.8458C183.564 32.1882 184.813 32.6676 185.488 33.2839L185.151 35.9205H175.496L175.159 33.2839C175.474 32.8502 176.093 32.4621 177.015 32.1197V22.6007C176.228 22.3268 175.609 21.9387 175.159 21.4365L175.496 18.7999C176.734 18.526 177.848 18.389 178.838 18.389C179.828 18.389 180.65 18.4119 181.302 18.4575V20.6147C181.82 19.9984 182.484 19.4962 183.294 19.1081C184.104 18.6972 184.836 18.4918 185.488 18.4918C186.163 18.4918 186.625 18.5488 186.872 18.663L186.771 23.1143C186.321 23.0458 185.826 23.0116 185.286 23.0116Z" fill="#0B4B5E"/>
<path d="M189.259 18.7999C190.497 18.526 191.273 18.389 192.263 18.389C193.253 18.389 194.075 18.4119 194.727 18.4575V20.1696C195.268 19.713 195.943 19.325 196.753 19.0054C197.563 18.6858 198.294 18.526 198.947 18.526C201.513 18.526 203.223 19.1766 204.078 20.4777C204.641 19.9299 205.383 19.4733 206.306 19.1081C207.229 18.72 208.084 18.526 208.872 18.526C211.347 18.526 213.013 19.0967 213.868 20.2381C214.723 21.3566 215.15 23.4681 215.15 26.5727V32.1197C216.028 32.4621 216.647 32.8502 217.007 33.2839L216.67 35.9205H208.905L208.568 33.2839C208.883 32.8502 209.502 32.4621 210.424 32.1197V25.34C210.424 24.0845 210.256 23.2513 209.918 22.8404C209.581 22.4295 208.905 22.224 207.893 22.224C206.902 22.224 205.957 22.6007 205.057 23.354C205.17 24.1301 205.226 25.203 205.226 26.5727V32.1197C206.104 32.4621 206.722 32.8502 207.083 33.2839L206.745 35.9205H198.981L198.643 33.2839C198.958 32.8502 199.577 32.4621 200.5 32.1197V25.34C200.5 24.0845 200.331 23.2513 199.994 22.8404C199.656 22.4295 198.992 22.224 198.002 22.224C197.012 22.224 196.066 22.5893 195.166 23.3198V32.1197C196.044 32.4621 196.663 32.8502 197.023 33.2839L196.685 35.9205H188.921L188.584 33.2839C188.899 32.8502 189.518 32.4621 190.44 32.1197V22.6007C189.653 22.3268 189.371 21.9387 188.921 21.4365L189.259 18.7999Z" fill="#0B4B5E"/>
<path d="M225.749 36.1944C223.049 36.1944 221.012 35.4639 219.639 34.003C218.289 32.542 217.614 30.4191 217.614 27.6341C217.614 25.9449 217.85 24.4954 218.323 23.2855C218.795 22.0528 219.437 21.1055 220.247 20.4435C221.822 19.1652 223.656 18.526 225.749 18.526C227.842 18.526 229.44 19.0739 230.543 20.1696C231.668 21.2425 232.231 23.1828 232.231 25.9906C232.231 27.6341 231.432 28.4559 229.834 28.4559H222.509C222.599 29.894 222.959 30.9099 223.589 31.5034C224.242 32.0969 225.266 32.3936 226.661 32.3936C227.426 32.3936 228.157 32.3023 228.855 32.1197C229.553 31.9371 230.059 31.7545 230.374 31.5718L230.847 31.2979L231.859 34.0372C231.724 34.197 231.522 34.4024 231.252 34.6535C231.004 34.8818 230.352 35.2014 229.294 35.6123C228.259 36.0004 227.077 36.1944 225.749 36.1944ZM227.876 25.4085C227.921 25.0889 227.944 24.7008 227.944 24.2443C227.944 23.7877 227.764 23.3083 227.403 22.8061C227.043 22.2811 226.413 22.0186 225.513 22.0186C224.635 22.0186 223.96 22.2925 223.488 22.8404C223.015 23.3882 222.7 24.3127 222.542 25.6139L227.876 25.4085Z" fill="#0B4B5E"/>
<path d="M233.898 11.6093C235.159 11.3126 236.329 11.1642 237.409 11.1642C238.489 11.1642 239.401 11.1984 240.143 11.2669V32.1197C241.021 32.4621 241.64 32.8502 242 33.2839L241.662 35.9205H233.898L233.561 33.2839C233.876 32.8502 234.495 32.4621 235.417 32.1197V15.4101C234.63 15.1361 234.011 14.7481 233.561 14.2459L233.898 11.6093Z" fill="#0B4B5E"/>
</svg>
